<svg width="454" height="454" xmlns="http://www.w3.org/2000/svg" xmlns:xlink="http://www.w3.org/1999/xlink" overflow="hidden"><g><rect x="0" y="0" width="454" height="454" fill="#FFFFFF" fill-opacity="0"/><path d="M449.128 365.482 420.371 415.29 256.216 130.461 149.343 315.57 90.1388 316.342 212.095 105.108 225.187 82.4315 226.863 79.5297 236.037 63.6394 255.62 29.7213Z" stroke="#FFD966" stroke-width="1.3348" stroke-linecap="round" stroke-linejoin="round" stroke-miterlimit="10" fill="#FFD966" fill-rule="evenodd"/><path d="M198.545 30.5 256.066 30.5 91.4549 314.684 305.225 314.684 335.5 365.5 91.5593 365.5 65.3715 365.5 62.0204 365.5 43.6697 365.5 4.49997 365.5Z" stroke="#E2F0D9" stroke-width="1.3348" stroke-linecap="round" stroke-linejoin="round" stroke-miterlimit="10" fill="#E2F0D9" fill-rule="evenodd"/><path d="M32.9841 414.77 4.22725 364.961 332.974 365.213 226.561 181.482 256.106 129.976 376.991 339.68 390.083 362.357 391.758 365.258 400.933 381.149 420.515 415.067 32.9841 414.77Z" stroke="#203864" stroke-width="1.3348" stroke-linecap="round" stroke-linejoin="round" stroke-miterlimit="10" fill="#203864" fill-rule="evenodd"/></g></svg>